                                                                        S      1
,,9H(Unsaved),17Hearly-vcx-chamber,7Hunknown,7Hunknown,32,38,7,99,15,,  G      1
1.,2,2HMM,1,0.08,15H20220719.135812,0.01,10000.,7Hunknown,7Hunknown,11, G      2
0,;                                                                     G      3
     408       1                                                00000001D      1
     408       0               1       0                               0D      2
     308       2                                                00010200D      3
     308       0               1       0                               0D      4
     186       3                                                00010000D      5
     186             -57       1       0                               0D      6
     514       4                                                00010000D      7
     514                       1       1                               0D      8
     510       5                                                00010000D      9
     510             -57       1       1                               0D     10
     510       6                                                00010000D     11
     510             -57       1       1                               0D     12
     510       7                                                00010000D     13
     510             -57       1       1                               0D     14
     510       8                                                00010000D     15
     510             -57       1       1                               0D     16
     508       9                                                00010000D     17
     508                       1       1                               0D     18
     508      10                                                00010000D     19
     508                       1       1                               0D     20
     508      11                                                00010000D     21
     508                       1       1                               0D     22
     508      12                                                00010000D     23
     508                       1       1                               0D     24
     508      13                                                00010000D     25
     508                       1       1                               0D     26
     508      14                                                00010000D     27
     508                       1       1                               0D     28
     126      15                                                00010000D     29
     126       0              10       0                               0D     30
     126      25                                                00010000D     31
     126       0               3       0                               0D     32
     126      28                                                00010000D     33
     126       0              10       0                               0D     34
     126      38                                                00010000D     35
     126       0               9       0                               0D     36
     126      47                                                00010000D     37
     126       0               3       0                               0D     38
     126      50                                                00010000D     39
     126       0               9       0                               0D     40
     128      59                                                00010000D     41
     128       0     -57      16       0                               0D     42
     128      75                                                00010000D     43
     128       0     -57      11       0                               0D     44
     128      86                                                00010000D     45
     128       0     -57       3       0                               0D     46
     128      89                                                00010000D     47
     128       0     -57       3       0                               0D     48
     502      92                                                00010000D     49
     502                       3       1                               0D     50
     504      95                                                00010001D     51
     504                       2       1                               0D     52
     406      97                                                00000000D     53
     406                       1      15                               0D     54
     406      98                                                00000000D     55
     406                       1      15                               0D     56
     314      99                                                00000200D     57
     314                       2       0                               0D     58
     314     101                                                00000200D     59
     314                       2       0                               0D     60
408,3,0.,0.,0.,1.,0,1,55;                                              1P      1
308,0,7HChamber,1,5;                                                   3P      2
186,7,1,0,0,1,53;                                                      5P      3
514,4,9,1,11,1,13,1,15,1;                                              7P      4
510,41,1,1,17;                                                         9P      5
510,43,1,1,19;                                                        11P      6
510,45,2,1,21,23;                                                     13P      7
510,47,2,1,25,27;                                                     15P      8
508,4,0,51,1,0,0,0,51,2,1,0,0,51,3,0,0,0,51,2,0,0;                    17P      9
508,4,0,51,4,0,0,0,51,5,1,0,0,51,6,1,0,0,51,5,0,0;                    19P     10
508,1,0,51,4,1,0;                                                     21P     11
508,1,0,51,3,1,0;                                                     23P     12
508,1,0,51,6,0,0;                                                     25P     13
508,1,0,51,1,1,0;                                                     27P     14
126,8,2,0,1,0,0,-3.14159265358979,-3.14159265358979,                  29P     15
-3.14159265358979,-1.5707963267949,-1.5707963267949,0.,0.,            29P     16
1.5707963267949,1.5707963267949,3.14159265358979,                     29P     17
3.14159265358979,3.14159265358979,1.,0.707106781186548,1.,            29P     18
0.707106781186548,1.,0.707106781186548,1.,0.707106781186548,1.,       29P     19
-4.,0.,3.67394039744206D-16,-4.,0.,3.,2.44929359829471D-16,0.,        29P     20
3.,4.,0.,3.,4.,0.,-1.97218597401582D-48,4.,0.,-3.,                    29P     21
2.44929359829471D-16,0.,-3.,-4.,0.,-3.,-4.,0.,                        29P     22
-3.67394039744206D-16,-3.14159265358979,3.14159265358979,0.,0.,       29P     23
0.;                                                                   29P     24
126,1,1,0,0,1,0,7.0458795946598D-48,7.0458795946598D-48,2.,2.,        31P     25
1.,1.,-4.,-5.12008751866441D-17,3.67394039744206D-16,-4.,8.,          31P     26
3.67394039744206D-16,7.0458795946598D-48,2.,0.,0.,0.;                 31P     27
126,8,2,0,1,0,0,-3.14159265358979,-3.14159265358979,                  33P     28
-3.14159265358979,-1.5707963267949,-1.5707963267949,0.,0.,            33P     29
1.5707963267949,1.5707963267949,3.14159265358979,                     33P     30
3.14159265358979,3.14159265358979,1.,0.707106781186548,1.,            33P     31
0.707106781186548,1.,0.707106781186548,1.,0.707106781186548,1.,       33P     32
-4.,8.,-3.67394039744206D-16,-4.,8.,-3.,2.44929359829471D-16,8.,      33P     33
-3.,4.,8.,-3.,4.,8.,-3.08148791101958D-31,4.,8.,3.,                   33P     34
2.44929359829471D-16,8.,3.,-4.,8.,3.,-4.,8.,                          33P     35
3.67394039744206D-16,-3.14159265358979,3.14159265358979,0.,0.,        33P     36
0.;                                                                   33P     37
126,8,2,0,1,0,0,-3.14159265358979,-3.14159265358979,                  35P     38
-3.14159265358979,-1.5707963267949,-1.5707963267949,0.,0.,            35P     39
1.5707963267949,1.5707963267949,3.14159265358979,                     35P     40
3.14159265358979,3.14159265358979,1.,0.707106781186548,1.,            35P     41
0.707106781186548,1.,0.707106781186548,1.,0.707106781186548,1.,       35P     42
-6.,8.,6.12323399573677D-16,-6.,8.,5.,3.67394039744206D-16,8.,        35P     43
5.,6.,8.,5.,6.,8.,0.,6.,8.,-5.,3.67394039744206D-16,8.,-5.,-6.,       35P     44
8.,-5.,-6.,8.,-6.12323399573677D-16,-3.14159265358979,                35P     45
3.14159265358979,0.,0.,0.;                                            35P     46
126,1,1,0,0,1,0,-1.33333333333333,-1.33333333333333,0.,0.,1.,1.,      37P     47
-6.,8.,6.12323399573677D-16,-6.,0.,6.12323399573677D-16,              37P     48
-1.33333333333333,0.,0.,0.,0.;                                        37P     49
126,8,2,0,1,0,0,-3.14159265358979,-3.14159265358979,                  39P     50
-3.14159265358979,-1.5707963267949,-1.5707963267949,0.,0.,            39P     51
1.5707963267949,1.5707963267949,3.14159265358979,                     39P     52
3.14159265358979,3.14159265358979,1.,0.707106781186548,1.,            39P     53
0.707106781186548,1.,0.707106781186548,1.,0.707106781186548,1.,       39P     54
-6.,0.,6.12323399573677D-16,-6.,0.,5.,3.67394039744206D-16,0.,        39P     55
5.,6.,0.,5.,6.,0.,0.,6.,0.,-5.,3.67394039744206D-16,0.,-5.,-6.,       39P     56
0.,-5.,-6.,0.,-6.12323399573677D-16,-3.14159265358979,                39P     57
3.14159265358979,0.,0.,0.;                                            39P     58
128,8,1,2,1,1,0,0,1,0,-3.14159265358979,-3.14159265358979,            41P     59
-3.14159265358979,-1.5707963267949,-1.5707963267949,0.,0.,            41P     60
1.5707963267949,1.5707963267949,3.14159265358979,                     41P     61
3.14159265358979,3.14159265358979,0.,0.,0.96,0.96,1.,                 41P     62
0.707106781186548,1.,0.707106781186548,1.,0.707106781186548,1.,       41P     63
0.707106781186548,1.,1.,0.707106781186548,1.,0.707106781186548,       41P     64
1.,0.707106781186548,1.,0.707106781186548,1.,-4.,                     41P     65
-1.23259516440783D-31,-1.97218597401582D-48,-4.,                      41P     66
-2.38815313104017D-31,-3.,0.,-2.38815313104017D-31,-3.,4.,            41P     67
-2.38815313104017D-31,-3.,4.,-1.23259516440783D-31,                   41P     68
-1.97218597401582D-48,4.,-7.70371977754896D-33,3.,0.,                 41P     69
-7.70371977754894D-33,3.,-4.,-7.703719777549D-33,3.,-4.,              41P     70
-1.23259516440783D-31,-1.97218597401582D-48,-4.,9.6,                  41P     71
-3.6977854932235D-31,-4.,9.6,-3.,0.,9.6,-3.,4.,9.6,-3.,4.,9.6,        41P     72
-3.6977854932235D-31,4.,9.6,3.,0.,9.6,3.,-4.,9.6,3.,-4.,9.6,          41P     73
-3.6977854932235D-31,-3.14159265358979,3.14159265358979,0.,0.96;      41P     74
128,8,1,2,1,1,0,0,1,0,-3.14159265358979,-3.14159265358979,            43P     75
-3.14159265358979,-1.5707963267949,-1.5707963267949,0.,0.,            43P     76
1.5707963267949,1.5707963267949,3.14159265358979,                     43P     77
3.14159265358979,3.14159265358979,0.,0.,0.96,0.96,1.,                 43P     78
0.707106781186548,1.,0.707106781186548,1.,0.707106781186548,1.,       43P     79
0.707106781186548,1.,1.,0.707106781186548,1.,0.707106781186548,       43P     80
1.,0.707106781186548,1.,0.707106781186548,1.,-6.,0.,0.,-6.,0.,        43P     81
5.,0.,0.,5.,6.,0.,5.,6.,0.,0.,6.,0.,-5.,0.,0.,-5.,-6.,0.,-5.,         43P     82
-6.,0.,0.,-6.,9.6,0.,-6.,9.6,5.,0.,9.6,5.,6.,9.6,5.,6.,9.6,0.,        43P     83
6.,9.6,-5.,0.,9.6,-5.,-6.,9.6,-5.,-6.,9.6,0.,-3.14159265358979,       43P     84
3.14159265358979,0.,0.96;                                             43P     85
128,1,1,1,1,0,0,1,0,0,-6.001,-6.001,6.001,6.001,-5.001,-5.001,        45P     86
5.001,5.001,1.,1.,1.,1.,-6.001,8.,5.001,6.001,8.,5.001,-6.001,        45P     87
8.,-5.001,6.001,8.,-5.001,-6.001,6.001,-5.001,5.001;                  45P     88
128,1,1,1,1,0,0,1,0,0,-6.001,-6.001,6.001,6.001,-5.001,-5.001,        47P     89
5.001,5.001,1.,1.,1.,1.,6.001,0.,5.001,-6.001,0.,5.001,6.001,0.,      47P     90
-5.001,-6.001,0.,-5.001,-6.001,6.001,-5.001,5.001;                    47P     91
502,4,-4.,-5.12008751866441D-17,-3.64291929955129D-16,-4.,8.,         49P     92
-3.6429192995513D-16,-6.,8.,6.12323399573677D-16,-6.,0.,              49P     93
6.12323399573677D-16;                                                 49P     94
504,6,29,49,1,49,1,31,49,1,49,2,33,49,2,49,2,35,49,3,49,3,37,49,      51P     95
3,49,4,39,49,4,49,4;                                                  51P     96
406,1,5HBody1;                                                        53P     97
406,1,9HChamber:1;                                                    55P     98
314,62.7450980392157,62.7450980392157,62.7450980392157,19HOpaque      57P     99
(160,160,160);                                                        57P    100
314,62.7450980392157,62.7450980392157,62.7450980392157,13HSteel       59P    101
- Satin;                                                              59P    102
S      1G      3D     60P    102                                        T      1
